<svg viewBox="0 0 32 32" xmlns="http://www.w3.org/2000/svg">
  <!-- Background circle -->
  <circle cx="16" cy="16" r="16" fill="#4FB3D9"/>
  
  <!-- Sun rays -->
  <g stroke="#FFB800" stroke-width="2" stroke-linecap="round">
    <line x1="16" y1="4" x2="16" y2="7"/>
    <line x1="22.6" y1="6.4" x2="20.8" y2="8.2"/>
    <line x1="25.6" y1="13" x2="22.6" y2="13"/>
    <line x1="22.6" y1="19.6" x2="20.8" y2="17.8"/>
    <line x1="16" y1="22" x2="16" y2="25"/>
    <line x1="9.4" y1="19.6" x2="11.2" y2="17.8"/>
    <line x1="6.4" y1="13" x2="9.4" y2="13"/>
    <line x1="9.4" y1="6.4" x2="11.2" y2="8.2"/>
  </g>
  
  <!-- Sun center -->
  <circle cx="16" cy="13" r="4" fill="#FFB800"/>
  
  <!-- Orange slice at bottom -->
  <path d="M8 24 C8 20, 12 18, 16 18 C20 18, 24 20, 24 24 L8 24 Z" fill="#FF6B35"/>
  <path d="M10 22 C10 20, 13 19, 16 19 C19 19, 22 20, 22 22" fill="#FF8C42" opacity="0.7"/>
</svg>